<svg width="110" height="44" viewBox="0 0 110 44" fill="none" xmlns="http://www.w3.org/2000/svg">
  <path d="M0 23.7965V23.6335C0.965559 23.6335 1.60926 23.3075 2.09204 22.0036L9.88088 0.651959L19.3755 22.0036C19.9549 23.3075 20.502 23.6335 21.4676 23.6335V23.7965H15.3202V23.6335C16.2858 23.6335 17.026 23.3075 16.4467 22.0036L14.0972 16.6902C13.4856 17.9615 12.6488 19.0698 11.4258 19.0698C9.30155 19.0698 8.78658 16.8531 7.11295 16.8531C5.85772 16.8531 4.40938 18.483 3.2829 20.2759L2.63919 22.0036C2.15641 23.3075 2.80012 23.6335 3.76568 23.6335V23.7965H0ZM13.8719 16.136L8.91532 4.95489L4.53813 16.8205C5.27839 16.1034 6.21176 15.4514 7.2095 15.4514C8.9797 15.4514 9.94525 18.0267 11.4258 18.0267C12.4879 18.0267 13.2603 17.1465 13.8719 16.136Z" fill="black" />
  <path d="M22.3212 23.7965V23.6335C23.2868 23.6335 23.9305 23.3075 23.9305 22.0036V10.9203C23.9305 9.6164 23.2868 9.29042 22.3212 9.29042V9.12743C23.319 9.12743 26.3444 8.99704 26.3444 7.49753H26.5053V10.2358C27.0203 8.60586 27.9215 7.17155 29.8526 7.17155C31.3653 7.17155 32.7171 8.11689 33.5861 9.74679L33.908 13.0066H33.5861C32.2665 10.3661 31.1722 7.69312 29.4664 7.69312C27.9537 7.69312 27.1812 9.5838 26.5053 11.996V22.0036C26.5053 23.3075 27.4709 23.6335 28.4365 23.6335V23.7965H22.3212Z" fill="black" />
  <path d="M44.5253 12.2568L44.8472 9.64899C45.7162 8.44287 47.0358 7.17155 50.1256 7.17155C53.5372 7.17155 56.4983 8.93184 56.4983 12.3546V22.0036C56.4983 23.1771 57.0132 23.6335 58.1075 23.6335V23.7965C55.5327 23.7965 54.1165 22.6882 53.9556 21.3517C53.1832 22.8186 51.5417 24.1225 48.7416 24.1225C45.8449 24.1225 42.9161 22.2644 42.9161 19.0046C42.9161 15.7448 45.8449 13.9193 48.7416 13.9193C51.5417 13.9193 53.151 15.0603 53.9234 16.4946V13.0392C53.9234 9.6164 52.4107 7.66052 50.1256 7.66052C47.0036 7.66052 45.6196 9.77939 44.8472 12.2568H44.5253ZM45.5553 19.0046C45.5553 22.0362 47.5829 23.6009 49.7072 23.6009C51.7992 23.6009 53.3119 22.0036 53.9234 20.4389V17.4725C53.3119 15.8426 51.7992 14.4409 49.7072 14.4409C47.4864 14.4409 45.5553 15.973 45.5553 19.0046Z" fill="black" />
  <path d="M59.0386 15.647C59.0386 10.5617 62.6434 7.17155 66.7631 7.17155C69.0161 7.17155 70.5931 8.31248 71.5265 10.1706V3.42279C71.5265 2.11887 70.8828 1.79289 69.9173 1.79289V1.6299C70.915 1.6299 73.9404 1.49951 73.9404 0H74.1013V22.0036C74.1013 23.3075 74.6807 23.6009 75.7106 23.6335V23.7965C72.9749 23.7965 71.5265 22.5904 71.5265 21.1235C70.5931 22.9816 69.0161 24.1225 66.7631 24.1225C62.6434 24.1225 59.0386 20.7323 59.0386 15.647ZM61.6778 15.647C61.6778 20.3737 63.8664 23.6335 66.7631 23.6335C68.9517 23.6335 70.6253 22.134 71.5265 19.8522V11.4419C70.6253 9.16002 68.9517 7.66052 66.7631 7.66052C63.7377 7.66052 61.6778 10.9203 61.6778 15.647Z" fill="black" />
  <path d="M76.4768 23.7965V23.6335C77.4423 23.6335 78.086 23.3075 78.086 22.0036V10.9203C78.086 9.6164 77.4423 9.29042 76.4768 9.29042V9.12743C77.4745 9.12743 80.4999 8.99704 80.4999 7.49753H80.6609V10.2358C81.8839 8.54066 83.3644 7.17155 85.8105 7.17155C88.7072 7.17155 92.1188 8.73625 92.1188 13.8541V22.0036C92.1188 23.3075 92.7625 23.6335 93.7281 23.6335V23.7965H87.6129V23.6335C88.9003 23.6335 89.544 23.3075 89.544 22.0036V13.5282C89.544 9.94238 87.8382 7.66052 85.4565 7.66052C83.6219 7.66052 82.2057 8.80145 80.6609 10.8225V22.0036C80.6609 23.3075 81.3046 23.6335 82.592 23.6335V23.7965H76.4768Z" fill="black" />
  <path d="M96.4178 12.2568L96.7397 9.64899C97.6087 8.44287 98.9283 7.17155 102.018 7.17155C105.43 7.17155 108.391 8.93184 108.391 12.3546V22.0036C108.391 23.1771 108.906 23.6335 110 23.6335V23.7965C107.425 23.7965 106.009 22.6882 105.848 21.3517C105.076 22.8186 103.434 24.1225 100.634 24.1225C97.7374 24.1225 94.8085 22.2644 94.8085 19.0046C94.8085 15.7448 97.7374 13.9193 100.634 13.9193C103.434 13.9193 105.043 15.0603 105.816 16.4946V13.0392C105.816 9.6164 104.303 7.66052 102.018 7.66052C98.8961 7.66052 97.5121 9.77939 96.7397 12.2568H96.4178ZM97.4477 19.0046C97.4477 22.0362 99.4754 23.6009 101.6 23.6009C103.692 23.6009 105.204 22.0036 105.816 20.4389V17.4725C105.204 15.8426 103.692 14.4409 101.6 14.4409C99.3789 14.4409 97.4477 15.973 97.4477 19.0046Z" fill="black" />
  <path d="M31.1875 36.8357C31.1875 39.4348 29.3451 41.1676 27.2395 41.1676C26.088 41.1676 25.2819 40.5845 24.8048 39.6348V43.0836C24.8048 43.7501 25.1338 43.9167 25.7919 43.9167V44H22.6663V43.9167C23.1598 43.9167 23.4888 43.7501 23.4888 43.0836V34.4198C23.4888 33.7534 23.1598 33.5868 22.6663 33.5868V33.5035C23.1763 33.5035 24.7226 33.4368 24.7226 32.6704H24.8048V34.0366C25.2819 33.0869 26.088 32.5038 27.2395 32.5038C29.3451 32.5038 31.1875 34.2365 31.1875 36.8357ZM29.8386 36.8357C29.8386 34.4198 28.7858 32.7537 27.2395 32.7537C26.1209 32.7537 25.2654 33.5201 24.8048 34.6864V38.985C25.2654 40.1513 26.1209 40.9177 27.2395 40.9177C28.72 40.9177 29.8386 39.2516 29.8386 36.8357Z" fill="black" />
  <path d="M31.8714 41.001V40.9177C32.3649 40.9177 32.6939 40.7511 32.6939 40.0846V34.4198C32.6939 33.7534 32.3649 33.5868 31.8714 33.5868V33.5035C32.3813 33.5035 33.9277 33.4368 33.9277 32.6704H34.0099V34.0699C34.2731 33.2369 34.7337 32.5038 35.7207 32.5038C36.4939 32.5038 37.1848 32.987 37.629 33.82L37.7935 35.4861H37.629C36.9545 34.1366 36.3952 32.7704 35.5233 32.7704C34.7502 32.7704 34.3554 33.7367 34.0099 34.9696V40.0846C34.0099 40.7511 34.5034 40.9177 34.9969 40.9177V41.001H31.8714Z" fill="black" />
  <path d="M38.0915 36.8357C38.0915 34.2365 39.8681 32.5038 42.0231 32.5038C44.2604 32.5038 45.5599 34.0699 45.5599 35.1696C45.5599 36.869 43.882 37.3522 42.5166 37.3522C41.3158 37.3522 40.2629 36.5358 39.8517 35.7361H40.0984C40.6084 36.4192 41.4638 37.0856 42.3521 37.0856C43.4378 37.0856 44.211 36.3858 44.211 35.1696C44.211 34.2532 43.6846 32.7537 42.0231 32.7537C40.4439 32.7537 39.4404 34.4198 39.4404 36.8357C39.4404 39.2516 40.559 40.9177 42.3028 40.9177C43.6846 40.9177 45.0006 40.1179 45.2309 38.9017H45.4777C45.2474 40.3179 43.7997 41.1676 42.3028 41.1676C39.9833 41.1676 38.0915 39.4348 38.0915 36.8357Z" fill="black" />
  <path d="M46.2493 41.001V40.9177C46.7428 40.9177 47.0718 40.7511 47.0718 40.0846V34.4198C47.0718 33.7534 46.7428 33.5868 46.2493 33.5868V33.5035C46.7593 33.5035 48.3056 33.4368 48.3056 32.6704H48.3878V34.0533C48.98 33.1869 49.638 32.5038 50.6909 32.5038C51.7601 32.5038 52.8952 32.9703 53.3723 34.3865C54.0303 33.3702 54.7047 32.5038 55.8891 32.5038C57.271 32.5038 58.7844 33.3035 58.7844 35.9193V40.0846C58.7844 40.7511 59.1134 40.9177 59.6069 40.9177V41.001H56.4814V40.9177C57.1394 40.9177 57.4684 40.7511 57.4684 40.0846V35.7527C57.4684 33.92 56.8268 32.7537 55.7082 32.7537C54.9186 32.7537 54.2606 33.4368 53.4216 34.5864C53.5203 34.9696 53.5861 35.4028 53.5861 35.9193V40.0846C53.5861 40.7511 53.9151 40.9177 54.5731 40.9177V41.001H51.2831V40.9177C51.9411 40.9177 52.2701 40.7511 52.2701 40.0846V35.7527C52.2701 33.92 51.6285 32.7537 50.5099 32.7537C49.7696 32.7537 49.1445 33.3535 48.3878 34.3698V40.0846C48.3878 40.7511 48.7168 40.9177 49.3748 40.9177V41.001H46.2493Z" fill="black" />
  <path d="M62.5011 30.8543C61.876 30.9543 61.4319 31.4041 61.3496 32.0206C61.2674 31.4041 60.8396 30.971 60.2145 30.871C60.8396 30.7877 61.2838 30.3378 61.3661 29.7214C61.4483 30.3378 61.876 30.771 62.5011 30.8543ZM60.0007 41.001V40.9177C60.4942 40.9177 60.8232 40.7511 60.8232 40.0846V34.4198C60.8232 33.7534 60.4942 33.5868 60.0007 33.5868V33.5035C60.5106 33.5035 62.057 33.4368 62.057 32.6704H62.1392V40.0846C62.1392 40.7511 62.4682 40.9177 62.9617 40.9177V41.001H60.0007Z" fill="black" />
  <path d="M72.1755 32.6704V32.7537C71.682 32.7537 71.353 32.9203 71.353 33.5868V40.0846C71.353 40.6844 71.6162 40.9177 72.1755 40.9177V41.001C70.7773 41.001 70.037 40.3679 70.037 39.6181V39.6014C69.4119 40.4678 68.6552 41.1676 67.405 41.1676C65.9244 41.1676 64.1807 40.3679 64.1807 37.7521V33.5868C64.1807 32.9203 63.8517 32.7537 63.3582 32.7537V32.6704H66.4837V32.7537C65.8257 32.7537 65.4967 32.9203 65.4967 33.5868V37.9187C65.4967 39.7514 66.3686 40.9177 67.5859 40.9177C68.5236 40.9177 69.2474 40.3345 70.037 39.3015V33.5868C70.037 32.9203 69.708 32.7537 69.05 32.7537V32.6704H72.1755Z" fill="black" />
  <path d="M72.5633 41.001V40.9177C73.0568 40.9177 73.3858 40.7511 73.3858 40.0846V34.4198C73.3858 33.7534 73.0568 33.5868 72.5633 33.5868V33.5035C73.0732 33.5035 74.6196 33.4368 74.6196 32.6704H74.7018V34.0533C75.294 33.1869 75.952 32.5038 77.0049 32.5038C78.0741 32.5038 79.2092 32.9703 79.6862 34.3865C80.3443 33.3702 81.0187 32.5038 82.2031 32.5038C83.585 32.5038 85.0984 33.3035 85.0984 35.9193V40.0846C85.0984 40.7511 85.4274 40.9177 85.9209 40.9177V41.001H82.7953V40.9177C83.4533 40.9177 83.7824 40.7511 83.7824 40.0846V35.7527C83.7824 33.92 83.1408 32.7537 82.0222 32.7537C81.2326 32.7537 80.5746 33.4368 79.7356 34.5864C79.8343 34.9696 79.9001 35.4028 79.9001 35.9193V40.0846C79.9001 40.7511 80.2291 40.9177 80.8871 40.9177V41.001H77.5971V40.9177C78.2551 40.9177 78.5841 40.7511 78.5841 40.0846V35.7527C78.5841 33.92 77.9425 32.7537 76.8239 32.7537C76.0836 32.7537 75.4585 33.3535 74.7018 34.3698V40.0846C74.7018 40.7511 75.0308 40.9177 75.6888 40.9177V41.001H72.5633Z" fill="black" />
  <path d="M38.2445 5.60512C38.6496 6.46325 39.1797 7.66007 38.2445 7.93258C37.0289 8.28676 37.3834 9.04571 37.3834 9.04571C37.3834 9.04571 36.7984 8.28271 36.3482 7.62697C35.898 6.97124 36.6743 6.21026 37.0289 5.60512C37.3834 4.99999 37.5558 3.54428 37.6379 2.97004C37.72 3.54428 37.8393 4.747 38.2445 5.60512ZM35.082 23.6427C35.5541 23.6427 36.0813 23.5401 36.3482 23.3351C36.6356 23.13 36.804 22.8627 36.804 22.2474V11.7233C36.804 11.108 36.5462 10.77 36.3482 10.5596C36.1513 10.3503 35.943 10.3572 35.5885 10.3572C35.8348 10.3572 35.9171 9.77052 36.3482 9.75001C36.7793 9.709 36.8493 10.3079 37.2599 10.2054C37.691 10.1028 37.969 9.24404 38.678 9.24404C39.3365 9.24404 39.1817 8.48509 39.4856 8.23211L38.8806 22.2474C38.8806 22.8627 39.2187 23.13 39.4856 23.3351C39.773 23.5401 40.1528 23.6427 40.625 23.6427V23.7965H35.082V23.6427Z" fill="black" />
</svg>